<?xml version="1.0" encoding="utf-8"?>
<!-- Generator: Adobe Illustrator 18.1.1, SVG Export Plug-In . SVG Version: 6.00 Build 0)  -->
<svg version="1.1" xmlns="http://www.w3.org/2000/svg" xmlns:xlink="http://www.w3.org/1999/xlink" x="0px" y="0px"
	 viewBox="0 0 250 250" enable-background="new 0 0 250 250" xml:space="preserve" r="1324.7">
<g id="Livello_3_1_">
	<circle fill="#2d5ead" stroke="#2d5ead" stroke-width="0.2835" stroke-miterlimit="10" cx="125.1" cy="124.9" r="124.7"/>
</g>
<g id="Livello_1">
	<g id="Globe_Grid">
	</g>
</g>
<g id="Livello_2_1_">
	<path fill="none" stroke="#9ccbd8" stroke-width="5.669291e-002" stroke-miterlimit="10" d="M11.4,73.4
		c11.3-24.8,36.9-56.1,83-59.3c53.6-3.7,76.1,7.5,76.1,7.5S133.6,10.7,82,25.7c-46.5,13.5-80.8,45.5-81.6,96"/>
	<path fill="none" stroke="#9ccbd8" stroke-width="5.669291e-002" stroke-miterlimit="10" d="M3.5,153c-3.2-17.3-9.8-48.6,44.1-94.1
		s122.9-37.4,122.9-37.4S109,25,55.6,75.5S7.2,166,11.4,176.4"/>
	<path fill="none" stroke="#9ccbd8" stroke-width="5.669291e-002" stroke-miterlimit="10" d="M29.3,204.9
		C19,182.4,27,150.6,72.1,94.7c50-61.9,98.4-73.1,98.4-73.1s-40.9,34-76.3,91.4s-53.3,96.4-45.8,110.3"/>
	<path fill="none" stroke="#9ccbd8" stroke-width="5.669291e-002" stroke-miterlimit="10" d="M92.7,245.4c0,0,14.3-2.2,39.4-62.7
		s33.2-94.9,38.4-161.1L69,236.3"/>
	<path fill="none" stroke="#9ccbd8" stroke-width="5.669291e-002" stroke-miterlimit="10" d="M113.5,249.1c0,0,27.4,3.5,52.4-59.1
		s15.3-142.8,4.5-168.5c0,0,26.1,32.5,32,76.7s-0.5,142.3-60.7,150.3"/>
	<path fill="none" stroke="#9ccbd8" stroke-width="5.669291e-002" stroke-miterlimit="10" d="M194.1,228.8
		c35.8-33.6,36.1-89.3,23.6-133.6c-12.5-44.3-47.2-73.6-47.2-73.6s41.5,24.5,58,67.9s14.7,75.8,6.2,95.1"/>
	<path fill="none" stroke="#9ccbd8" stroke-width="5.669291e-002" stroke-miterlimit="10" d="M247.7,147.7c0,0,6.9-22.9-13.3-64.1
		c-21.5-43.8-64-62.1-64-62.1s53,17.7,73.6,65.7"/>
	<path fill="none" stroke="#9ccbd8" stroke-width="5.669291e-002" stroke-miterlimit="10" d="M239.8,75.8
		c-20.1-46-69.3-54.2-69.3-54.2s29.1,2.4,48.8,21.5"/>
	<path fill="none" stroke="#9ccbd8" stroke-width="5.669291e-002" stroke-miterlimit="10" d="M205.5,29.6c-11.8-8.3-35-8-35-8
		s16.9-4.7,25.8,0.9"/>
	<path fill="none" stroke="#9ccbd8" stroke-width="5.669291e-002" stroke-miterlimit="10" d="M185.4,15.7
		c-6.2-1.2-14.9,5.9-14.9,5.9l5.1-10.9"/>
	<path fill="none" stroke="#9ccbd8" stroke-width="5.669291e-002" stroke-miterlimit="10" d="M164.2,6.4c5.4,1.2,6.3,15.1,6.3,15.1
		s-7.3-16.7-19.4-18.7"/>
	<path fill="none" stroke="#9ccbd8" stroke-width="5.669291e-002" stroke-miterlimit="10" d="M135.5,0.6c20.8,2.3,35,21,35,21
		S148.3-1,109.5,1.1"/>
	<path fill="none" stroke="#9ccbd8" stroke-width="5.669291e-002" stroke-miterlimit="10" d="M83.2,7.4
		c46.3-14.4,87.3,14.2,87.3,14.2s-17-9.3-41.7-13S79.9,6.8,51.6,24"/>
</g>
<g id="Livello_4">
	<path fill="none" stroke="#9ccbd8" stroke-width="5.669291e-002" stroke-miterlimit="10" d="M190.1,18.4c19,15.2,20.4,23.3,18.4,28
		c-4.4,10.4-25.9,10.3-48.3,0.8s-38-25.6-33.6-36c2-4.8,13-11.6,44.2-2.5"/>
	<path fill="none" stroke="#9ccbd8" stroke-width="5.669291e-002" stroke-miterlimit="10" d="M229.2,56.1c7.5,11.3,7,19,4.7,24.4
		c-8.6,20.3-48.9,20.9-90.5,3.3S73.1,35.4,81.7,15.1c2.2-5.3,10.6-12.2,27.3-14"/>
	<path fill="none" stroke="#9ccbd8" stroke-width="5.669291e-002" stroke-miterlimit="10" d="M249.3,113.4c-0.1,3.2-0.6,6-1.6,8.4
		c-11.4,26.8-67.7,31.4-122.7,8.1S36,58.9,47.4,32.1c2-4.7,7.7-11.7,17.5-16.5"/>
	<path fill="none" stroke="#9ccbd8" stroke-width="5.669291e-002" stroke-miterlimit="10" d="M247.7,121.8c-11.4,26.8-67.7,31.4-122.7,8.1"
		/>
	<path fill="none" stroke="#9ccbd8" stroke-width="5.669291e-002" stroke-miterlimit="10" d="M243.3,164.6c-12.8,30.2-75.9,35.1-137.8,8.9
		S6.2,89.4,19,59.3"/>
	<path fill="none" stroke="#9ccbd8" stroke-width="5.669291e-002" stroke-miterlimit="10" d="M226.4,197.7c-15.4,27.1-82.1,38.2-142.5,7
		C25.2,174.4-8.5,124.8,5.7,88.6"/>
	<path fill="none" stroke="#9ccbd8" stroke-width="5.669291e-002" stroke-miterlimit="10" d="M168.5,241.9c-26.3,5.9-58.2,3.5-90.3-10.1
		c-35.6-15.1-61.4-44.1-73.4-73.8"/>
</g>
</svg>
